<svg width="97" height="26" viewBox="0 0 97 26" fill="none" xmlns="http://www.w3.org/2000/svg">
<path d="M4.92 21.832H15.256V25H0.6V22.152L10.904 5.928H0.6V2.76H15.256V5.608L4.92 21.832ZM35.4038 15.752C35.4038 16.4133 35.3611 17.0107 35.2758 17.544H21.8038C21.9104 18.952 22.4331 20.0827 23.3718 20.936C24.3104 21.7893 25.4624 22.216 26.8278 22.216C28.7904 22.216 30.1771 21.3947 30.9878 19.752H34.9237C34.3904 21.3733 33.4198 22.7067 32.0118 23.752C30.6251 24.776 28.8971 25.288 26.8278 25.288C25.1424 25.288 23.6278 24.9147 22.2838 24.168C20.9611 23.4 19.9158 22.3333 19.1478 20.968C18.4011 19.5813 18.0278 17.9813 18.0278 16.168C18.0278 14.3547 18.3904 12.7653 19.1158 11.4C19.8624 10.0133 20.8971 8.94667 22.2198 8.2C23.5638 7.45333 25.0998 7.08 26.8278 7.08C28.4918 7.08 29.9744 7.44267 31.2758 8.168C32.5771 8.89333 33.5904 9.91733 34.3158 11.24C35.0411 12.5413 35.4038 14.0453 35.4038 15.752ZM31.5958 14.6C31.5744 13.256 31.0944 12.1787 30.1558 11.368C29.2171 10.5573 28.0544 10.152 26.6678 10.152C25.4091 10.152 24.3318 10.5573 23.4358 11.368C22.5398 12.1573 22.0064 13.2347 21.8358 14.6H31.5958ZM47.8898 7.08C49.2764 7.08 50.5138 7.368 51.6018 7.944C52.7111 8.52 53.5751 9.37333 54.1938 10.504C54.8124 11.6347 55.1218 13 55.1218 14.6V25H51.5058V15.144C51.5058 13.5653 51.1111 12.36 50.3218 11.528C49.5324 10.6747 48.4551 10.248 47.0898 10.248C45.7244 10.248 44.6364 10.6747 43.8258 11.528C43.0364 12.36 42.6418 13.5653 42.6418 15.144V25H38.9938V7.368H42.6418V9.384C43.2391 8.65867 43.9964 8.09333 44.9138 7.688C45.8524 7.28267 46.8444 7.08 47.8898 7.08Z" fill="#05668D" fill-opacity="0.866667"/>
<path d="M71.679 13.576C72.8737 13.7893 73.887 14.4187 74.719 15.464C75.551 16.5093 75.967 17.6933 75.967 19.016C75.967 20.1467 75.6683 21.1707 75.071 22.088C74.495 22.984 73.6523 23.6987 72.543 24.232C71.4337 24.744 70.143 25 68.671 25H59.775V2.76H68.255C69.7697 2.76 71.071 3.016 72.159 3.528C73.247 4.04 74.0683 4.73333 74.623 5.608C75.1777 6.46133 75.455 7.42133 75.455 8.488C75.455 9.768 75.1137 10.8347 74.431 11.688C73.7483 12.5413 72.831 13.1707 71.679 13.576ZM63.423 12.104H67.935C69.1297 12.104 70.0577 11.8373 70.719 11.304C71.4017 10.7493 71.743 9.96 71.743 8.936C71.743 7.93333 71.4017 7.15467 70.719 6.6C70.0577 6.024 69.1297 5.736 67.935 5.736H63.423V12.104ZM68.351 22.024C69.5883 22.024 70.559 21.7253 71.263 21.128C71.967 20.5307 72.319 19.6987 72.319 18.632C72.319 17.544 71.9457 16.68 71.199 16.04C70.4523 15.4 69.4603 15.08 68.223 15.08H63.423V22.024H68.351ZM81.7873 5.032C81.1259 5.032 80.5713 4.808 80.1233 4.36C79.6753 3.912 79.4513 3.35733 79.4513 2.696C79.4513 2.03467 79.6753 1.48 80.1233 1.032C80.5713 0.583999 81.1259 0.359999 81.7873 0.359999C82.4273 0.359999 82.9713 0.583999 83.4193 1.032C83.8673 1.48 84.0913 2.03467 84.0913 2.696C84.0913 3.35733 83.8673 3.912 83.4193 4.36C82.9713 4.808 82.4273 5.032 81.7873 5.032ZM83.5793 7.368V25H79.9313V7.368H83.5793ZM92.6248 10.344V20.104C92.6248 20.7653 92.7741 21.2453 93.0728 21.544C93.3928 21.8213 93.9261 21.96 94.6728 21.96H96.9128V25H94.0328C92.3901 25 91.1314 24.616 90.2568 23.848C89.3821 23.08 88.9448 21.832 88.9448 20.104V10.344H86.8648V7.368H88.9448V2.984H92.6248V7.368H96.9128V10.344H92.6248Z" fill="#02C39A" fill-opacity="0.866667"/>
</svg>
